Coordinates
version=1
nRows=11
nColumns=36
inDegrees=yes

Units are S.I. units (second, meters, Newtons, ...)
If the header above contains a line with 'inDegrees', this indicates whether rotational values are in degrees (yes) or radians (no).

endheader
time	pelvis_tilt	pelvis_list	pelvis_rotation	pelvis_tx	pelvis_ty	pelvis_tz	hip_flexion_r	hip_adduction_r	hip_rotation_r	knee_angle_r	knee_angle_r_beta	ankle_angle_r	subtalar_angle_r	mtp_angle_r	hip_flexion_l	hip_adduction_l	hip_rotation_l	knee_angle_l	knee_angle_l_beta	ankle_angle_l	subtalar_angle_l	mtp_angle_l	lumbar_extension	lumbar_bending	lumbar_rotation	arm_flex_r	arm_add_r	arm_rot_r	elbow_flex_r	pro_sup_r	arm_flex_l	arm_add_l	arm_rot_l	elbow_flex_l	pro_sup_l
     14.86666670	      7.27031948	      7.70255724	    173.01919714	      0.57417306	      0.82069649	      0.72111848	      7.66491741	      7.20141075	     -2.62793710	     39.07163613	      0.68192869	     23.46997218	     -1.33146356	     -7.49999987	     34.55900009	    -10.49524038	     -0.44744484	      7.11581709	      0.12419444	    -16.35931031	      0.93869308	     -7.49999987	     -5.90376531	      7.15497576	     11.46477250	     20.92320016	    -24.19959474	      2.43775343	     32.35683073	     81.79460631	      2.76624983	     -5.99234281	    -28.39268742	      7.63070562	     95.17290301
     14.88333330	      7.23126838	      7.29349497	    172.99262851	      0.57160642	      0.81946096	      0.72148063	      8.81372210	      6.14279119	     -2.80154064	     44.02885298	      0.76844845	     23.86052954	     -1.32681069	     -7.49999987	     34.11298876	    -10.00291904	      0.05718283	      8.30722275	      0.14498839	    -16.62455010	      0.46957492	     -7.49999987	     -5.76103068	      6.63316673	     10.89485657	     20.95868634	    -23.70956939	      2.38323176	     32.66254369	     81.59884840	      2.65809775	     -5.98538293	    -28.60622014	      7.68162458	     95.32460237
     14.90000000	      6.90005370	      6.75386384	    173.34733858	      0.56594494	      0.81828428	      0.72161061	      9.40514263	      4.96125437	     -3.09479343	     48.50080303	      0.84649870	     23.34625812	     -1.10631143	     -7.49999987	     33.33065187	     -9.24366475	      0.40079497	      9.94371552	      0.17355058	    -17.04463526	     -0.50411876	     -7.49999987	     -5.44406329	      5.91917507	      9.95061976	     20.67659463	    -22.85420407	      2.27453716	     32.51160911	     81.39413629	      2.61576349	     -6.11622118	    -28.76740001	      7.55475071	     95.44716958
     14.91666670	      6.14539657	      6.01203667	    173.98329252	      0.55887500	      0.81765005	      0.72420152	      9.42911586	      3.49028242	     -3.27622135	     52.55967996	      0.91733947	     21.68242423	     -1.27546941	     -7.49999987	     32.13026975	     -8.15210982	      0.43743311	     12.19151051	      0.21278200	    -17.09565481	     -2.04218968	     -7.49999987	     -5.33943901	      4.94300754	      8.93438437	     20.05392853	    -21.84447887	      2.21377022	     32.09043112	     81.29133690	      2.81608550	     -6.33323791	    -28.79323940	      7.34116673	     95.49674006
     14.93333330	      5.47991771	      5.17851646	    174.81666230	      0.55206180	      0.81710293	      0.73083568	      9.95324402	      1.62792514	     -3.58258176	     57.04627354	      0.99564530	     18.43478107	     -1.93298616	     -7.49999987	     30.92378642	     -6.71911779	      0.67067606	     14.76736345	      0.25773911	    -17.30213095	     -5.06310116	     -7.49999987	     -5.11321670	      3.98103270	      7.58274339	     19.51652521	    -20.48900003	      1.81814067	     30.71778437	     81.18010320	      3.12757040	     -6.57185845	    -28.73197620	      6.54438140	     95.78359406
     14.95000000	      4.94682266	      4.29757149	    175.81886819	      0.54552955	      0.81767511	      0.73924689	     11.20846540	     -0.46862406	     -3.73842507	     62.21154704	      1.08579633	     13.76413350	     -3.55158561	     -7.49999987	     29.54257445	     -4.98503570	      0.72208569	     17.12177724	      0.29883139	    -16.88117012	     -8.07519569	     -7.49999987	     -4.82507233	      3.16326128	      6.20185503	     18.75654701	    -19.22457798	      1.31304185	     28.99481257	     81.22305311	      3.50361675	     -6.73226794	    -28.38841694	      6.06197833	     96.38319760
     14.96666670	      4.42926390	      3.45428260	    176.87903028	      0.54127764	      0.81986417	      0.74633630	     13.11628537	     -2.47854838	     -3.55702426	     67.78165056	      1.18301297	      8.80677733	     -5.17745921	     -7.49999987	     27.64495204	     -3.18416437	      0.48424921	     18.44881090	      0.32199249	    -15.79469385	     -9.97719839	     -7.49999987	     -4.87419418	      2.40989518	      4.83340492	     17.61465186	    -18.26932952	      1.17767727	     28.12142247	     81.31634047	      4.04127448	     -6.75270782	    -27.99786605	      6.21320402	     96.75779556
     14.98333330	      4.29757965	      2.90752752	    177.85656216	      0.54127171	      0.82317772	      0.75162259	     16.07291620	     -3.97983833	     -3.10102233	     73.36356187	      1.28043571	      4.69894520	     -6.55611581	     -7.49999987	     26.10206569	     -1.69168269	      0.50794736	     19.21566643	      0.33537665	    -14.28438404	    -11.38753234	     -7.49999987	     -4.75486282	      2.09092047	      3.41675809	     16.76674191	    -17.27981941	      0.66162391	     26.34441772	     81.68775569	      4.74454576	     -6.71408784	    -25.94723831	      6.67013338	     97.96857817
     15.00000000	      3.87320116	      2.37144949	    178.42755768	      0.54417243	      0.82682862	      0.75452427	     19.17933505	     -5.20179389	     -2.16010104	     78.36501244	      1.36772749	      2.11424965	     -7.61483973	     -7.49999987	     24.27342098	     -0.47255159	      0.34331369	     19.58122654	      0.34175687	    -12.59612571	    -11.94484186	     -7.49999987	     -5.60803719	      1.83337775	      2.21722042	     15.80401455	    -16.64653233	      0.64540490	     26.24109024	     81.88211709	      5.82404814	     -6.53865029	    -25.06165181	      7.95084628	     98.35340484
     15.01666670	      3.89886618	      1.88420840	    178.75884241	      0.54641148	      0.82956255	      0.75491772	     22.46017919	     -6.08548684	     -1.36685185	     81.65707761	      1.42518486	      0.02419437	     -8.42870868	     -7.49999987	     23.17987494	      0.40075653	      0.29816756	     20.19346226	      0.35244240	    -10.69938776	    -11.72132565	     -7.49999987	     -5.91445311	      1.51435713	      1.62002261	     15.02241577	    -16.01466746	      0.17611692	     25.42368840	     82.93607267	      6.80567221	     -6.57959723	    -20.61576271	      9.74345345	    100.51873785
     15.03333330	      3.71998268	      1.37801416	    178.87580728	      0.54822379	      0.83187249	      0.75483053	     25.05240614	     -6.63252565	     -0.67364565	     83.34638360	      1.45466881	     -1.60038261	     -9.29679432	     -7.49999987	     21.65937969	      1.12803600	      0.58926352	     20.34166089	      0.35502896	     -9.76835763	    -11.60007095	     -7.49999987	     -6.68719069	      1.20889690	      1.10410411	     14.45780971	    -15.48032583	      0.15204825	     25.04192245	     83.14170443	      8.17970966	     -6.45564304	    -19.65339252	     10.79633864	    100.70499224
